# xmcd
#
# Track frame offsets: 
#        150
#        28008
#        60142
#        94450
#        118735
#        157193
#        185556
#        213090
#
# Disc length: 3184 seconds
#
# Revision: 1
# Processed by: cddbd v1.5.2PL0 Copyright (c) Steve Scherf et al.
# Submitted via: ExactAudioCopyFreeDBPlugin 1.0
#
DISCID=6a0c6e08
DTITLE=Gerry Mulligan - Walking Shoes
DYEAR=1900
DGENRE=Jazz
TTITLE0=Blight of the Fumble Bee
TTITLE1=Song for Jonny Hodges
TTITLE2=Gerry Meets Hamp
TTITLE3=Limelight
TTITLE4=Blues for Gerry
TTITLE5=Apple Core
TTITLE6=Line for Lyons
TTITLE7=Walking Shoes
EXTD=
EXTT0=
EXTT1=
EXTT2=
EXTT3=
EXTT4=
EXTT5=
EXTT6=
EXTT7=
PLAYORDER=
